<?xml version="1.0" standalone="no"?>
<!DOCTYPE svg PUBLIC "-//W3C//DTD SVG 20010904//EN"
 "http://www.w3.org/TR/2001/REC-SVG-20010904/DTD/svg10.dtd">
<svg version="1.0" xmlns="http://www.w3.org/2000/svg"
 width="512.000000pt" height="512.000000pt" viewBox="0 0 512.000000 512.000000"
 preserveAspectRatio="xMidYMid meet">
<metadata>
Created by potrace 1.14, written by Peter Selinger 2001-2017
</metadata>
<g transform="translate(0.000000,512.000000) scale(0.100000,-0.100000)"
fill="#000000" stroke="none">
<path d="M980 4485 c-529 -290 -944 -525 -957 -540 -27 -31 -30 -80 -7 -115 9
-14 136 -145 283 -292 l266 -268 -283 -283 c-277 -277 -282 -284 -282 -323 0
-29 7 -48 23 -65 12 -13 149 -93 305 -178 l282 -155 0 -523 c0 -432 2 -529 14
-551 11 -21 219 -139 953 -542 846 -465 942 -515 983 -515 41 0 137 50 983
515 735 403 942 521 953 542 12 22 14 120 14 551 l0 523 282 155 c156 85 293
165 305 178 16 17 23 36 23 65 0 39 -5 46 -282 323 l-283 283 266 268 c147
147 274 278 283 292 25 38 20 85 -11 119 -16 16 -177 111 -358 210 -368 201
-382 206 -436 152 -37 -38 -40 -97 -6 -135 12 -13 139 -88 282 -166 143 -79
262 -144 265 -147 6 -5 -442 -453 -454 -453 -4 0 -335 179 -735 399 -399 219
-770 422 -825 451 l-98 53 230 230 230 230 229 -126 c125 -70 243 -131 260
-138 47 -16 103 13 121 63 13 33 12 41 -4 75 -17 35 -43 51 -304 195 -229 127
-293 157 -324 158 -38 0 -47 -8 -323 -282 l-283 -282 -283 282 c-276 275 -285
282 -323 282 -32 -1 -196 -87 -974 -515z m1183 57 l227 -227 -582 -320 c-321
-176 -695 -382 -833 -458 l-249 -138 -228 228 c-125 125 -224 231 -220 235 4
4 151 85 327 182 176 96 545 298 820 450 275 151 502 275 505 276 3 0 108
-102 233 -228z m490 -421 l89 -48 -64 -36 c-410 -228 -1563 -857 -1571 -857
-18 0 -169 85 -169 94 1 7 1610 896 1622 896 3 0 45 -22 93 -49z m-1655 -1123
c142 -79 513 -282 825 -453 l566 -310 -227 -228 c-153 -153 -232 -225 -242
-222 -8 4 -346 187 -750 409 -404 222 -772 423 -817 447 l-82 44 227 228 c125
125 230 227 235 227 4 0 124 -64 265 -142z m3622 -83 c180 -180 222 -227 210
-235 -8 -6 -283 -157 -610 -337 -327 -179 -691 -380 -808 -445 -117 -65 -216
-118 -220 -118 -4 0 -109 102 -234 227 l-227 227 42 24 c23 13 87 48 142 77
55 30 406 223 780 429 374 206 685 375 690 375 6 1 111 -100 235 -224z m-3679
-831 l119 -65 0 -425 0 -425 -77 42 c-43 23 -99 54 -125 68 l-48 26 0 423 c0
232 2 422 6 422 3 0 59 -30 125 -66z m1999 -940 l0 -591 -137 -75 -138 -76 -3
525 c-2 581 0 560 -68 585 -34 12 -34 12 -34 75 0 55 2 63 19 63 11 0 33 14
50 31 42 42 43 94 2 138 -16 17 -38 31 -50 31 -20 0 -21 5 -21 132 l0 133 190
-190 190 -190 0 -591z"/>
<path d="M3993 4500 c-54 -33 -62 -108 -17 -154 46 -45 121 -37 154 17 30 48
26 83 -14 123 -40 40 -75 44 -123 14z"/>
</g>
</svg>
